<?xml version="1.0" encoding="utf-8"?>
<!-- Generator: Adobe Illustrator 24.0.1, SVG Export Plug-In . SVG Version: 6.00 Build 0)  -->
<svg version="1.1" id="Limited_Logo_1_" xmlns="http://www.w3.org/2000/svg" xmlns:xlink="http://www.w3.org/1999/xlink" x="0px"
	 y="0px" viewBox="0 0 360 156.7" style="enable-background:new 0 0 360 156.7;" xml:space="preserve">
<style type="text/css">
	.logo_lt0{fill:none;}
	.logo_lt1{fill:#0047BA;}
	.logo_lt2{fill:#0048BB;}
	.logo_lt3{fill:#66FF99;}
	.logo_lt4{fill:url(#icon_2_);}
</style>
<rect id="Blue_background_2_" x="101.7" y="-101.7" transform="matrix(6.123234e-17 -1 1 6.123234e-17 101.6667 258.3333)" class="logo_lt0" width="156.7" height="360"/>
<g id="blue">
	<g>
		<g>
			<path class="logo_lt1" d="M34.1,107.7c0-1.1,0.9-2,2.1-2c1.1,0,2,0.9,2,2v7.9h11.2v-7.9c0-1.1,0.9-2,2-2c1.2,0,2.1,0.9,2.1,2v19.7
				c0,1.1-0.9,2-2.1,2c-1.1,0-2-0.9-2-2v-8H38.3v8c0,1.1-0.9,2-2,2c-1.2,0-2.1-0.9-2.1-2V107.7z"/>
			<path class="logo_lt1" d="M58.6,117.7L58.6,117.7c0-6.7,5.1-12.2,12.3-12.2s12.3,5.5,12.3,12.1v0.1c0,6.6-5.1,12.2-12.3,12.2
				C63.6,129.7,58.6,124.3,58.6,117.7z M78.8,117.7L78.8,117.7c0-4.6-3.3-8.4-8-8.4s-7.9,3.7-7.9,8.3v0.1c0,4.6,3.3,8.3,8,8.3
				S78.8,122.2,78.8,117.7z"/>
			<path class="logo_lt1" d="M88.2,107.8c0-1.1,0.9-2.1,2.1-2.1h0.4c0.9,0,1.5,0.5,1.9,1.1l7.1,11.1l7.2-11.2c0.4-0.7,1-1.1,1.9-1.1h0.4
				c1.2,0,2.1,0.9,2.1,2.1v19.7c0,1.1-0.9,2-2.1,2c-1.1,0-2-0.9-2-2v-14.1l-5.7,8.6c-0.4,0.7-1,1.1-1.7,1.1c-0.7,0-1.3-0.4-1.7-1.1
				l-5.7-8.6v14.1c0,1.1-0.9,2-2,2c-1.1,0-2-0.9-2-2V107.8z"/>
			<path class="logo_lt1" d="M117.3,127.3v-19.3c0-1.2,0.9-2.1,2.1-2.1h13.7c1,0,1.8,0.8,1.8,1.8c0,1-0.8,1.8-1.8,1.8h-11.6v6.1h10.1
				c1,0,1.8,0.8,1.8,1.9c0,1-0.8,1.8-1.8,1.8h-10.1v6.3h11.8c1,0,1.8,0.8,1.8,1.8c0,1-0.8,1.8-1.8,1.8h-13.8
				C118.2,129.3,117.3,128.4,117.3,127.3z"/>
		</g>
		<g>
			<path class="logo_lt1" d="M153.8,126.6c-0.5-0.3-0.8-0.9-0.8-1.6c0-1.1,0.9-1.9,1.9-1.9c0.6,0,0.9,0.2,1.2,0.4c1.9,1.5,4,2.4,6.6,2.4
				c2.6,0,4.2-1.2,4.2-3v-0.1c0-1.7-0.9-2.6-5.3-3.6c-5-1.2-7.8-2.7-7.8-7v-0.1c0-4,3.4-6.8,8-6.8c3,0,5.3,0.8,7.5,2.2
				c0.5,0.3,0.9,0.8,0.9,1.6c0,1.1-0.9,1.9-1.9,1.9c-0.4,0-0.7-0.1-1.1-0.3c-1.8-1.2-3.6-1.8-5.4-1.8c-2.4,0-3.8,1.2-3.8,2.8v0.1
				c0,1.8,1.1,2.6,5.6,3.7c5,1.2,7.5,3,7.5,6.9v0.1c0,4.4-3.5,7-8.4,7C159.4,129.6,156.4,128.6,153.8,126.6z"/>
			<path class="logo_lt1" d="M175.9,127.2v-19.3c0-1.2,0.9-2.1,2.1-2.1h13.7c1,0,1.8,0.8,1.8,1.8c0,1-0.8,1.8-1.8,1.8H180v6.1h10.1
				c1,0,1.8,0.8,1.8,1.9c0,1-0.8,1.8-1.8,1.8H180v6.3h11.8c1,0,1.8,0.8,1.8,1.8c0,1-0.8,1.8-1.8,1.8h-13.8
				C176.8,129.3,175.9,128.4,175.9,127.2z"/>
			<path class="logo_lt1" d="M198.3,107.8c0-1.2,0.9-2.1,2.1-2.1h8.4c3,0,5.3,0.9,6.8,2.3c1.2,1.3,1.9,3,1.9,5.1v0.1c0,3.8-2.2,6-5.3,7
				l4.5,5.7c0.4,0.5,0.7,0.9,0.7,1.6c0,1.1-1,1.9-2,1.9c-0.9,0-1.5-0.4-2-1.1l-5.7-7.3h-5.2v6.3c0,1.1-0.9,2-2,2
				c-1.2,0-2.1-0.9-2.1-2V107.8z M208.5,117.4c3,0,4.8-1.5,4.8-3.9v-0.1c0-2.5-1.8-3.9-4.9-3.9h-6v7.9H208.5z"/>
			<path class="logo_lt1" d="M229,127.9l-8.2-19.3c-0.1-0.3-0.2-0.6-0.2-1c0-1.1,0.9-2,2.1-2c1.1,0,1.8,0.6,2.1,1.5l6.8,17l6.9-17.1
				c0.3-0.7,1-1.3,2-1.3c1.1,0,2,0.9,2,2c0,0.3-0.1,0.6-0.2,0.9l-8.3,19.5c-0.4,1-1.2,1.7-2.4,1.7h-0.2
				C230.2,129.6,229.5,129,229,127.9z"/>
			<path class="logo_lt1" d="M247.1,107.6c0-1.1,0.9-2,2.1-2c1.1,0,2,0.9,2,2v19.7c0,1.1-0.9,2-2,2c-1.2,0-2.1-0.9-2.1-2V107.6z"/>
			<path class="logo_lt1" d="M256.4,117.6L256.4,117.6c0-6.7,5-12.2,12.1-12.2c3.6,0,6,1.1,8.1,2.7c0.4,0.3,0.8,0.9,0.8,1.6
				c0,1.1-0.9,2-2,2c-0.6,0-1-0.2-1.2-0.4c-1.6-1.3-3.4-2.1-5.6-2.1c-4.5,0-7.8,3.7-7.8,8.3v0.1c0,4.6,3.3,8.3,7.8,8.3
				c2.5,0,4.2-0.8,5.9-2.2c0.3-0.3,0.7-0.5,1.2-0.5c1,0,1.9,0.9,1.9,1.9c0,0.6-0.3,1.1-0.7,1.5c-2.2,1.9-4.7,3.2-8.5,3.2
				C261.5,129.7,256.4,124.3,256.4,117.6z"/>
			<path class="logo_lt1" d="M282.3,127.2v-19.3c0-1.2,0.9-2.1,2.1-2.1H298c1,0,1.8,0.8,1.8,1.8c0,1-0.8,1.8-1.8,1.8h-11.6v6.1h10.1
				c1,0,1.8,0.8,1.8,1.9c0,1-0.8,1.8-1.8,1.8h-10.1v6.3h11.8c1,0,1.8,0.8,1.8,1.8c0,1-0.8,1.8-1.8,1.8h-13.8
				C283.2,129.3,282.3,128.4,282.3,127.2z"/>
			<path class="logo_lt1" d="M304.2,126.6c-0.5-0.3-0.8-0.9-0.8-1.6c0-1.1,0.9-1.9,1.9-1.9c0.6,0,0.9,0.2,1.2,0.4c1.9,1.5,4,2.4,6.6,2.4
				c2.6,0,4.2-1.2,4.2-3v-0.1c0-1.7-0.9-2.6-5.3-3.6c-5-1.2-7.8-2.7-7.8-7v-0.1c0-4,3.4-6.8,8-6.8c3,0,5.3,0.8,7.5,2.2
				c0.5,0.3,0.9,0.8,0.9,1.6c0,1.1-0.9,1.9-1.9,1.9c-0.4,0-0.7-0.1-1.1-0.3c-1.8-1.2-3.6-1.8-5.4-1.8c-2.4,0-3.8,1.2-3.8,2.8v0.1
				c0,1.8,1.1,2.6,5.6,3.7c5,1.2,7.5,3,7.5,6.9v0.1c0,4.4-3.5,7-8.4,7C309.8,129.6,306.8,128.6,304.2,126.6z"/>
		</g>
	</g>
	<g id="white_5_">
		<g id="blue_1_">
			<path class="logo_lt1" d="M50.8,88.3c-12.9,0-21-7.2-21.3-18.9l0-1.2h5.9l0.1,1c0.5,8.3,6.6,13.6,15.4,13.6c3.4,0,14.7-0.7,14.7-9.4
				c0-7.1-6.9-8.5-14.8-10.1L49.3,63c-9.5-1.9-18.1-4.5-18.1-15.3c0-13,14.7-14,19.2-14c12.4,0,19.6,6.2,19.6,17.1V52h-6l0-1
				c-0.1-9.7-7.5-11.7-13.6-11.7c-6.4,0-13.2,2.2-13.2,8.5c0,6.7,7.1,8.1,14.6,9.6l1.1,0.2c10.2,2,18.6,4.6,18.6,15.8
				C71.4,87.2,55.6,88.3,50.8,88.3 M217.2,88.3c4.8,0,20.6-1.1,20.6-14.9c0-11.2-8.4-13.8-18.6-15.8l-1.1-0.2
				c-7.5-1.5-14.6-3-14.6-9.6c0-6.2,6.8-8.5,13.2-8.5c6.2,0,13.5,2,13.6,11.7l0,1h6v-1.1c0-10.8-7.1-17.1-19.6-17.1
				c-4.5,0-19.2,1-19.2,14c0,10.7,8.6,13.4,18.1,15.3l1.3,0.3c8,1.6,14.8,3,14.8,10.1c0,8.8-11.2,9.4-14.7,9.4
				c-8.8,0-14.8-5.3-15.4-13.6l-0.1-1h-5.9l0,1.2C196.2,81,204.4,88.3,217.2,88.3 M171.4,87.1h6V58.7c0-7.1,1.6-9.9,5.3-13.6
				c4-4,8.6-4.6,11-4.6c0.6,0,1.2,0,1.9,0.1l1.2,0.1v-6.1l-1.1,0c-0.3,0-0.7,0-1,0c-7.1,0-13.9,3.4-17.3,8.3v-7.9h-6V87.1
				 M113.9,68.2h6l-0.1,0.9c-2.1,12.4-10.1,19.1-22.7,19.1c-14.1,0-23.2-10.4-23.2-26.4c0-14,7.2-28.1,23.2-28.1
				c6.8,0,12.3,2.2,16.4,6.4c4.8,5,7.1,12.6,6.7,21.3l-0.1,1.1H79.9c0.1,6.3,2.2,11.9,5.8,15.5c2.9,3,6.9,4.6,11.4,4.6
				c8.8,0,15.1-5.2,16.7-13.9L113.9,68.2 M80,57.1h34.1c-0.6-9.1-6.5-17.9-17.1-17.9C87.2,39.2,81.1,48.1,80,57.1 M145.6,33.7
				c12,0,18.6,5,18.6,14.2v39.2h-6v-7c-3.1,4.3-9,8.2-17.6,8.2c-11.5,0-17.8-5.4-17.8-15.2c0-9.6,6.5-15,19.4-15.9
				c16.1-1.2,16.1-1.8,16.1-9.2c0-1.8-2.2-8.7-12.7-8.7c-8.7,0-13.7,4.3-14.2,12.2l0,0.5h-6l0-0.5C125.9,40,133.1,33.7,145.6,33.7
				 M158.2,59.9c-2.9,1.5-7.2,1.9-11.7,2.3c-1.7,0.1-3.4,0.3-5.1,0.5c-9,1.1-12.7,4.1-12.7,10.4c0,5.9,4.7,9.7,12,9.7
				c17,0,17.5-15.7,17.5-15.9V59.9z M239.7,34.9c-1.7,0-3.2,1.4-3.2,3.2c0,1.8,1.5,3.2,3.2,3.2c1.7,0,3.2-1.4,3.2-3.2
				C242.9,36.3,241.4,34.9,239.7,34.9 M237.1,38.1c0-1.5,1.1-2.7,2.6-2.7c1.5,0,2.6,1.2,2.6,2.7c0,1.6-1.1,2.7-2.6,2.7
				C238.2,40.8,237.1,39.7,237.1,38.1 M238.4,40h0.6v-1.6h0.6l1,1.6h0.6l-1.1-1.6c0.6-0.1,1-0.3,1-1c0-0.7-0.4-1.1-1.3-1.1h-1.4V40z
				 M239,36.7h0.8c0.4,0,0.8,0.1,0.8,0.6c0,0.6-0.5,0.6-1,0.6H239V36.7z"/>
		</g>
	</g>
</g>
<g id="WHITE_1_">
	<g>
		<g>
			<path class="logo_lt2" d="M34.1,107.7c0-1.1,0.9-2,2.1-2c1.1,0,2,0.9,2,2v7.9h11.2v-7.9c0-1.1,0.9-2,2-2c1.2,0,2.1,0.9,2.1,2v19.7
				c0,1.1-0.9,2-2.1,2c-1.1,0-2-0.9-2-2v-8H38.3v8c0,1.1-0.9,2-2,2c-1.2,0-2.1-0.9-2.1-2V107.7z"/>
			<path class="logo_lt2" d="M58.6,117.7L58.6,117.7c0-6.7,5.1-12.2,12.3-12.2s12.3,5.5,12.3,12.1v0.1c0,6.6-5.1,12.2-12.3,12.2
				C63.6,129.7,58.6,124.3,58.6,117.7z M78.8,117.7L78.8,117.7c0-4.6-3.3-8.4-8-8.4s-7.9,3.7-7.9,8.3v0.1c0,4.6,3.3,8.3,8,8.3
				S78.8,122.2,78.8,117.7z"/>
			<path class="logo_lt2" d="M88.2,107.8c0-1.1,0.9-2.1,2.1-2.1h0.4c0.9,0,1.5,0.5,1.9,1.1l7.1,11.1l7.2-11.2c0.4-0.7,1-1.1,1.9-1.1h0.4
				c1.2,0,2.1,0.9,2.1,2.1v19.7c0,1.1-0.9,2-2.1,2c-1.1,0-2-0.9-2-2v-14.1l-5.7,8.6c-0.4,0.7-1,1.1-1.7,1.1c-0.7,0-1.3-0.4-1.7-1.1
				l-5.7-8.6v14.1c0,1.1-0.9,2-2,2c-1.1,0-2-0.9-2-2V107.8z"/>
			<path class="logo_lt2" d="M117.3,127.3v-19.3c0-1.2,0.9-2.1,2.1-2.1h13.7c1,0,1.8,0.8,1.8,1.8c0,1-0.8,1.8-1.8,1.8h-11.6v6.1h10.1
				c1,0,1.8,0.8,1.8,1.9c0,1-0.8,1.8-1.8,1.8h-10.1v6.3h11.8c1,0,1.8,0.8,1.8,1.8c0,1-0.8,1.8-1.8,1.8h-13.8
				C118.2,129.3,117.3,128.4,117.3,127.3z"/>
		</g>
		<g>
			<path class="logo_lt2" d="M153.8,126.6c-0.5-0.3-0.8-0.9-0.8-1.6c0-1.1,0.9-1.9,1.9-1.9c0.6,0,0.9,0.2,1.2,0.4c1.9,1.5,4,2.4,6.6,2.4
				c2.6,0,4.2-1.2,4.2-3v-0.1c0-1.7-0.9-2.6-5.3-3.6c-5-1.2-7.8-2.7-7.8-7v-0.1c0-4,3.4-6.8,8-6.8c3,0,5.3,0.8,7.5,2.2
				c0.5,0.3,0.9,0.8,0.9,1.6c0,1.1-0.9,1.9-1.9,1.9c-0.4,0-0.7-0.1-1.1-0.3c-1.8-1.2-3.6-1.8-5.4-1.8c-2.4,0-3.8,1.2-3.8,2.8v0.1
				c0,1.8,1.1,2.6,5.6,3.7c5,1.2,7.5,3,7.5,6.9v0.1c0,4.4-3.5,7-8.4,7C159.4,129.6,156.4,128.6,153.8,126.6z"/>
			<path class="logo_lt2" d="M175.9,127.2v-19.3c0-1.2,0.9-2.1,2.1-2.1h13.7c1,0,1.8,0.8,1.8,1.8c0,1-0.8,1.8-1.8,1.8H180v6.1h10.1
				c1,0,1.8,0.8,1.8,1.9c0,1-0.8,1.8-1.8,1.8H180v6.3h11.8c1,0,1.8,0.8,1.8,1.8c0,1-0.8,1.8-1.8,1.8h-13.8
				C176.8,129.3,175.9,128.4,175.9,127.2z"/>
			<path class="logo_lt2" d="M198.3,107.8c0-1.2,0.9-2.1,2.1-2.1h8.4c3,0,5.3,0.9,6.8,2.3c1.2,1.3,1.9,3,1.9,5.1v0.1c0,3.8-2.2,6-5.3,7
				l4.5,5.7c0.4,0.5,0.7,0.9,0.7,1.6c0,1.1-1,1.9-2,1.9c-0.9,0-1.5-0.4-2-1.1l-5.7-7.3h-5.2v6.3c0,1.1-0.9,2-2,2
				c-1.2,0-2.1-0.9-2.1-2V107.8z M208.5,117.4c3,0,4.8-1.5,4.8-3.9v-0.1c0-2.5-1.8-3.9-4.9-3.9h-6v7.9H208.5z"/>
			<path class="logo_lt2" d="M229,127.9l-8.2-19.3c-0.1-0.3-0.2-0.6-0.2-1c0-1.1,0.9-2,2.1-2c1.1,0,1.8,0.6,2.1,1.5l6.8,17l6.9-17.1
				c0.3-0.7,1-1.3,2-1.3c1.1,0,2,0.9,2,2c0,0.3-0.1,0.6-0.2,0.9l-8.3,19.5c-0.4,1-1.2,1.7-2.4,1.7h-0.2
				C230.2,129.6,229.5,129,229,127.9z"/>
			<path class="logo_lt2" d="M247.1,107.6c0-1.1,0.9-2,2.1-2c1.1,0,2,0.9,2,2v19.7c0,1.1-0.9,2-2,2c-1.2,0-2.1-0.9-2.1-2V107.6z"/>
			<path class="logo_lt2" d="M256.4,117.6L256.4,117.6c0-6.7,5-12.2,12.1-12.2c3.6,0,6,1.1,8.1,2.7c0.4,0.3,0.8,0.9,0.8,1.6
				c0,1.1-0.9,2-2,2c-0.6,0-1-0.2-1.2-0.4c-1.6-1.3-3.4-2.1-5.6-2.1c-4.5,0-7.8,3.7-7.8,8.3v0.1c0,4.6,3.3,8.3,7.8,8.3
				c2.5,0,4.2-0.8,5.9-2.2c0.3-0.3,0.7-0.5,1.2-0.5c1,0,1.9,0.9,1.9,1.9c0,0.6-0.3,1.1-0.7,1.5c-2.2,1.9-4.7,3.2-8.5,3.2
				C261.5,129.7,256.4,124.3,256.4,117.6z"/>
			<path class="logo_lt2" d="M282.3,127.2v-19.3c0-1.2,0.9-2.1,2.1-2.1H298c1,0,1.8,0.8,1.8,1.8c0,1-0.8,1.8-1.8,1.8h-11.6v6.1h10.1
				c1,0,1.8,0.8,1.8,1.9c0,1-0.8,1.8-1.8,1.8h-10.1v6.3h11.8c1,0,1.8,0.8,1.8,1.8c0,1-0.8,1.8-1.8,1.8h-13.8
				C283.2,129.3,282.3,128.4,282.3,127.2z"/>
			<path class="logo_lt2" d="M304.2,126.6c-0.5-0.3-0.8-0.9-0.8-1.6c0-1.1,0.9-1.9,1.9-1.9c0.6,0,0.9,0.2,1.2,0.4c1.9,1.5,4,2.4,6.6,2.4
				c2.6,0,4.2-1.2,4.2-3v-0.1c0-1.7-0.9-2.6-5.3-3.6c-5-1.2-7.8-2.7-7.8-7v-0.1c0-4,3.4-6.8,8-6.8c3,0,5.3,0.8,7.5,2.2
				c0.5,0.3,0.9,0.8,0.9,1.6c0,1.1-0.9,1.9-1.9,1.9c-0.4,0-0.7-0.1-1.1-0.3c-1.8-1.2-3.6-1.8-5.4-1.8c-2.4,0-3.8,1.2-3.8,2.8v0.1
				c0,1.8,1.1,2.6,5.6,3.7c5,1.2,7.5,3,7.5,6.9v0.1c0,4.4-3.5,7-8.4,7C309.8,129.6,306.8,128.6,304.2,126.6z"/>
		</g>
	</g>
	<g id="white_1_">
		<g id="blue_2_">
			<path class="logo_lt2" d="M50.8,88.3c-12.9,0-21-7.2-21.3-18.9l0-1.2h5.9l0.1,1c0.5,8.3,6.6,13.6,15.4,13.6c3.4,0,14.7-0.7,14.7-9.4
				c0-7.1-6.9-8.5-14.8-10.1L49.3,63c-9.5-1.9-18.1-4.5-18.1-15.3c0-13,14.7-14,19.2-14c12.4,0,19.6,6.2,19.6,17.1V52h-6l0-1
				c-0.1-9.7-7.5-11.7-13.6-11.7c-6.4,0-13.2,2.2-13.2,8.5c0,6.7,7.1,8.1,14.6,9.6l1.1,0.2c10.2,2,18.6,4.6,18.6,15.8
				C71.4,87.2,55.6,88.3,50.8,88.3 M217.2,88.3c4.8,0,20.6-1.1,20.6-14.9c0-11.2-8.4-13.8-18.6-15.8l-1.1-0.2
				c-7.5-1.5-14.6-3-14.6-9.6c0-6.2,6.8-8.5,13.2-8.5c6.2,0,13.5,2,13.6,11.7l0,1h6v-1.1c0-10.8-7.1-17.1-19.6-17.1
				c-4.5,0-19.2,1-19.2,14c0,10.7,8.6,13.4,18.1,15.3l1.3,0.3c8,1.6,14.8,3,14.8,10.1c0,8.8-11.2,9.4-14.7,9.4
				c-8.8,0-14.8-5.3-15.4-13.6l-0.1-1h-5.9l0,1.2C196.2,81,204.4,88.3,217.2,88.3 M171.4,87.1h6V58.7c0-7.1,1.6-9.9,5.3-13.6
				c4-4,8.6-4.6,11-4.6c0.6,0,1.2,0,1.9,0.1l1.2,0.1v-6.1l-1.1,0c-0.3,0-0.7,0-1,0c-7.1,0-13.9,3.4-17.3,8.3v-7.9h-6V87.1
				 M113.9,68.2h6l-0.1,0.9c-2.1,12.4-10.1,19.1-22.7,19.1c-14.1,0-23.2-10.4-23.2-26.4c0-14,7.2-28.1,23.2-28.1
				c6.8,0,12.3,2.2,16.4,6.4c4.8,5,7.1,12.6,6.7,21.3l-0.1,1.1H79.9c0.1,6.3,2.2,11.9,5.8,15.5c2.9,3,6.9,4.6,11.4,4.6
				c8.8,0,15.1-5.2,16.7-13.9L113.9,68.2 M80,57.1h34.1c-0.6-9.1-6.5-17.9-17.1-17.9C87.2,39.2,81.1,48.1,80,57.1 M145.6,33.7
				c12,0,18.6,5,18.6,14.2v39.2h-6v-7c-3.1,4.3-9,8.2-17.6,8.2c-11.5,0-17.8-5.4-17.8-15.2c0-9.6,6.5-15,19.4-15.9
				c16.1-1.2,16.1-1.8,16.1-9.2c0-1.8-2.2-8.7-12.7-8.7c-8.7,0-13.7,4.3-14.2,12.2l0,0.5h-6l0-0.5C125.9,40,133.1,33.7,145.6,33.7
				 M158.2,59.9c-2.9,1.5-7.2,1.9-11.7,2.3c-1.7,0.1-3.4,0.3-5.1,0.5c-9,1.1-12.7,4.1-12.7,10.4c0,5.9,4.7,9.7,12,9.7
				c17,0,17.5-15.7,17.5-15.9V59.9z M239.7,34.9c-1.7,0-3.2,1.4-3.2,3.2c0,1.8,1.5,3.2,3.2,3.2c1.7,0,3.2-1.4,3.2-3.2
				C242.9,36.3,241.4,34.9,239.7,34.9 M237.1,38.1c0-1.5,1.1-2.7,2.6-2.7c1.5,0,2.6,1.2,2.6,2.7c0,1.6-1.1,2.7-2.6,2.7
				C238.2,40.8,237.1,39.7,237.1,38.1 M238.4,40h0.6v-1.6h0.6l1,1.6h0.6l-1.1-1.6c0.6-0.1,1-0.3,1-1c0-0.7-0.4-1.1-1.3-1.1h-1.4V40z
				 M239,36.7h0.8c0.4,0,0.8,0.1,0.8,0.6c0,0.6-0.5,0.6-1,0.6H239V36.7z"/>
		</g>
	</g>
</g>
<g id="Icon">
	<g>
		<path class="logo_lt3" d="M319.4,84.3h-0.9v-0.5h2.4v0.5h-0.9v2.5h-0.5V84.3z"/>
		<path class="logo_lt3" d="M321.4,83.8h0.6l0.9,1.4l0.9-1.4h0.6v3h-0.5v-2.1l-0.9,1.4h0l-0.9-1.4v2.1h-0.5V83.8z"/>
	</g>
	<g id="icon_1_">
		
			<linearGradient id="icon_2_" gradientUnits="userSpaceOnUse" x1="-295.6197" y1="56.8188" x2="-242.8556" y2="19.873" gradientTransform="matrix(1 0 0 1 558.0789 22.0516)">
			<stop  offset="0" style="stop-color:#66FF99"/>
			<stop  offset="1" style="stop-color:#33FFFF"/>
		</linearGradient>
		<path id="icon_8_" class="logo_lt4" d="M309,86.7c-0.7,0-17-0.1-17-9.1V62.4c0-1.7-1.2-2-2.2-2c-1,0-2.2,0.3-2.2,2v15.2
			c0,9-16.3,9.1-17,9.1c-3,0-5.3-2.1-8.9-13.3c-0.9-2.6-3.7-11.7-3.7-17.4c0-7.2,9.6-18.6,11.5-20.8c4.5-5.2,13.1-13.9,20.3-13.9
			c11.7,0,31.8,25.6,31.8,34.8c0,5.7-2.8,14.8-3.7,17.4C314.2,84.7,312,86.7,309,86.7z M289.7,29.6c-1.7,0-7,3-14,11
			c-6.2,7.1-9.5,13.5-9.5,15.4c0,5.6,4,18,6.1,22.2c2.4-0.2,5.5-0.8,6.7-1.5V62.4c0-5.9,4.6-10.4,10.6-10.4c6,0,10.6,4.5,10.6,10.4
			v14.3c1.3,0.7,4.3,1.3,6.7,1.5c2.1-4.3,6.1-16.7,6.1-22.2C313.1,50.5,295.7,29.6,289.7,29.6z"/>
	</g>
</g>
</svg>
