<?xml version="1.0" encoding="utf-8"?>
<!-- Generator: Adobe Illustrator 25.3.1, SVG Export Plug-In . SVG Version: 6.00 Build 0)  -->
<svg version="1.1" id="Layer_1" xmlns="http://www.w3.org/2000/svg" xmlns:xlink="http://www.w3.org/1999/xlink" x="0px" y="0px"
	 viewBox="0 0 138.3 80" style="enable-background:new 0 0 138.3 80;" xml:space="preserve">
<style type="text/css">
	.st0{fill:#0048BB;}
</style>
<g>
	<path class="st0" d="M24.7,51.5c0.7,1.3,1.6,2.4,2.7,3.2c1.2,0.8,2.5,1.4,4.1,1.7c1.6,0.3,3.3,0.5,5.1,0.5c1,0,2.1-0.1,3.4-0.4
		c1.2-0.3,2.3-0.7,3.4-1.4c1-0.6,1.9-1.4,2.6-2.4c0.7-1,1-2.2,1-3.6c0-1.1-0.2-2-0.7-2.8c-0.5-0.8-1.1-1.5-1.9-2
		c-0.8-0.5-1.7-1-2.6-1.3c-1-0.3-1.9-0.6-2.8-0.8l-8.7-2.1c-1.1-0.3-2.2-0.6-3.3-1.1c-1.1-0.4-2-1-2.8-1.7c-0.8-0.7-1.5-1.6-1.9-2.6
		c-0.5-1-0.7-2.3-0.7-3.8c0-0.9,0.2-2,0.5-3.3c0.4-1.3,1.1-2.4,2.1-3.6c1-1.1,2.4-2.1,4.1-2.8c1.8-0.8,4-1.2,6.8-1.2
		c1.9,0,3.8,0.3,5.5,0.8c1.8,0.5,3.3,1.3,4.6,2.3c1.3,1,2.4,2.3,3.2,3.7c0.8,1.5,1.2,3.2,1.2,5.2h-3.7c-0.1-1.5-0.4-2.8-1-3.8
		c-0.6-1.1-1.4-2-2.4-2.7c-1-0.7-2.1-1.3-3.4-1.7s-2.6-0.6-4-0.6c-1.3,0-2.5,0.1-3.7,0.4c-1.2,0.3-2.2,0.7-3.1,1.3
		c-0.9,0.6-1.6,1.4-2.2,2.3c-0.5,1-0.8,2.2-0.8,3.6c0,0.9,0.2,1.7,0.5,2.3c0.3,0.7,0.7,1.2,1.3,1.7c0.5,0.5,1.2,0.8,1.9,1.1
		c0.7,0.3,1.5,0.5,2.3,0.7l9.6,2.3c1.4,0.4,2.7,0.8,3.9,1.3c1.2,0.5,2.3,1.2,3.2,1.9c0.9,0.8,1.7,1.7,2.2,2.8c0.5,1.1,0.8,2.5,0.8,4
		c0,0.4,0,1-0.1,1.7c-0.1,0.7-0.3,1.5-0.7,2.3c-0.3,0.8-0.8,1.6-1.5,2.4c-0.6,0.8-1.5,1.6-2.6,2.2c-1.1,0.7-2.5,1.2-4.1,1.6
		C40,59.8,38,60,35.7,60c-2.3,0-4.4-0.3-6.4-0.8c-2-0.5-3.7-1.3-5.1-2.4c-1.4-1.1-2.5-2.5-3.2-4.1c-0.8-1.7-1.1-3.7-1-6.1h3.7
		C23.7,48.6,24,50.2,24.7,51.5z"/>
	<path class="st0" d="M92.4,51.5c0.7,1.3,1.6,2.4,2.7,3.2c1.2,0.8,2.5,1.4,4.1,1.7c1.6,0.3,3.3,0.5,5.1,0.5c1,0,2.1-0.1,3.4-0.4
		c1.2-0.3,2.3-0.7,3.4-1.4c1-0.6,1.9-1.4,2.6-2.4c0.7-1,1-2.2,1-3.6c0-1.1-0.2-2-0.7-2.8c-0.5-0.8-1.1-1.5-1.9-2
		c-0.8-0.5-1.7-1-2.6-1.3c-1-0.3-1.9-0.6-2.8-0.8l-8.7-2.1c-1.1-0.3-2.2-0.6-3.3-1.1c-1.1-0.4-2-1-2.8-1.7c-0.8-0.7-1.5-1.6-1.9-2.6
		c-0.5-1-0.7-2.3-0.7-3.8c0-0.9,0.2-2,0.5-3.3c0.4-1.3,1.1-2.4,2.1-3.6c1-1.1,2.4-2.1,4.1-2.8c1.8-0.8,4-1.2,6.8-1.2
		c1.9,0,3.8,0.3,5.5,0.8c1.8,0.5,3.3,1.3,4.6,2.3c1.3,1,2.4,2.3,3.2,3.7c0.8,1.5,1.2,3.2,1.2,5.2h-3.7c-0.1-1.5-0.4-2.8-1-3.8
		c-0.6-1.1-1.4-2-2.4-2.7c-1-0.7-2.1-1.3-3.4-1.7s-2.6-0.6-4-0.6c-1.3,0-2.5,0.1-3.7,0.4c-1.2,0.3-2.2,0.7-3.1,1.3
		c-0.9,0.6-1.6,1.4-2.2,2.3c-0.5,1-0.8,2.2-0.8,3.6c0,0.9,0.2,1.7,0.5,2.3c0.3,0.7,0.7,1.2,1.3,1.7c0.5,0.5,1.2,0.8,1.9,1.1
		c0.7,0.3,1.5,0.5,2.3,0.7l9.6,2.3c1.4,0.4,2.7,0.8,3.9,1.3c1.2,0.5,2.3,1.2,3.2,1.9c0.9,0.8,1.7,1.7,2.2,2.8c0.5,1.1,0.8,2.5,0.8,4
		c0,0.4,0,1-0.1,1.7c-0.1,0.7-0.3,1.5-0.7,2.3c-0.3,0.8-0.8,1.6-1.5,2.4c-0.6,0.8-1.5,1.6-2.6,2.2c-1.1,0.7-2.5,1.2-4.1,1.6
		c-1.6,0.4-3.6,0.6-5.9,0.6c-2.3,0-4.4-0.3-6.4-0.8c-2-0.5-3.7-1.3-5.1-2.4c-1.4-1.1-2.5-2.5-3.2-4.1c-0.8-1.7-1.1-3.7-1-6.1h3.7
		C91.4,48.6,91.7,50.2,92.4,51.5z"/>
	<path class="st0" d="M57.6,20.8v16.7h23.2V20.8h3.7v38.4h-3.7V40.6H57.6v18.6h-3.7V20.8H57.6z"/>
</g>
</svg>
